<svg width="76" height="68" viewBox="0 0 76 68" fill="none" xmlns="http://www.w3.org/2000/svg">
<path d="M23.712 28.844L29.108 27.7231L40.508 47.8989C40.8627 48.4469 41.2933 48.8952 41.8 49.244C42.3067 49.5429 42.9147 49.7421 43.624 49.8418C44.3333 49.9414 45.0933 49.9912 45.904 49.9912H46.664V53.0549H36.632L23.712 28.844ZM12.996 49.244C12.996 49.3934 13.1733 49.5179 13.528 49.6176C13.8827 49.6674 14.3387 49.7421 14.896 49.8418C15.504 49.8916 16.1373 49.9414 16.796 49.9912C17.5053 49.9912 18.1893 49.9912 18.848 49.9912H19.684V53.0549H0V49.9912H0.836C2.71067 49.9912 4.256 49.8168 5.472 49.4681C6.688 49.1194 7.296 48.3971 7.296 47.3011V5.75385C7.296 4.65788 6.688 3.93553 5.472 3.58681C4.256 3.2381 2.71067 3.06374 0.836 3.06374H0V0H21.432C25.384 0 28.7787 0.62271 31.616 1.86813C34.4533 3.11355 36.632 4.85714 38.152 7.0989C39.7227 9.34066 40.508 11.981 40.508 15.0198C40.508 17.4608 39.976 19.6527 38.912 21.5956C37.8987 23.5385 36.404 25.1824 34.428 26.5275C32.5027 27.8725 30.2227 28.844 27.588 29.4418C26.9293 29.5912 26.2453 29.7158 25.536 29.8154C24.8773 29.915 24.1933 29.9897 23.484 30.0396C22.7747 30.0894 22.0147 30.1143 21.204 30.1143H11.704V26.6022H21.204C24.244 26.6022 26.7267 26.1289 28.652 25.1824C30.5773 24.1861 31.996 22.8161 32.908 21.0725C33.8707 19.3289 34.352 17.3114 34.352 15.0198C34.352 12.6286 33.8453 10.5861 32.832 8.89231C31.8693 7.19854 30.4 5.9033 28.424 5.0066C26.4987 4.10989 24.1173 3.66154 21.28 3.66154H12.996V49.244Z" fill="#3E4F5B"/>
<path d="M26.296 18.0088V14.9451H45.524V18.0088H44.232C43.32 18.0088 42.3827 18.0337 41.42 18.0835C40.4573 18.1333 39.6467 18.2081 38.988 18.3077C38.3293 18.4073 38 18.5568 38 18.756L52.288 39.0813L52.744 39.3055L69.16 62.3956C70.0213 63.5414 70.8827 64.2637 71.744 64.5626C72.656 64.8117 73.8213 64.9363 75.24 64.9363H76V68H56.392V64.9363H57.684C58.596 64.9363 59.5333 64.9114 60.496 64.8615C61.4587 64.8117 62.2693 64.737 62.928 64.6374C63.5867 64.4879 63.916 64.3385 63.916 64.189L48.564 42.5934L48.108 42.2945L32.68 20.4C32.1733 19.6527 31.616 19.1048 31.008 18.756C30.4507 18.4073 29.8173 18.2081 29.108 18.1582C28.4493 18.0586 27.6387 18.0088 26.676 18.0088H26.296ZM25.08 68V64.9363H25.84C27.208 64.9363 28.3733 64.7121 29.336 64.2637C30.3493 63.8154 31.3627 62.8938 32.376 61.4989L48.184 39.5297L50.54 42.5934L35.568 63.5912C35.568 63.8403 35.8973 64.0894 36.556 64.3385C37.2653 64.5377 38.1267 64.6872 39.14 64.7868C40.1533 64.8864 41.116 64.9363 42.028 64.9363H43.168V68H25.08ZM52.744 41.3978L50.236 38.7077L63.84 19.3538C63.84 19.0549 63.5107 18.8059 62.852 18.6066C62.1933 18.4073 61.3827 18.2579 60.42 18.1582C59.4573 18.0586 58.4947 18.0088 57.532 18.0088H56.392V14.9451H74.176V18.0088H73.796C72.3773 18.0088 71.136 18.233 70.072 18.6813C69.0587 19.1297 68.0453 20.0264 67.032 21.3714L52.744 41.3978Z" fill="#3E4F5B"/>
</svg>
